<svg id="Layer_1" data-name="Layer 1" xmlns="http://www.w3.org/2000/svg" width="250.16" height="200" viewBox="0 0 250.16 200"><defs><style>.cls-1{fill:#fff;}.cls-2{fill:#f2f2f2;}.cls-3{fill:#3f3d56;}.cls-12,.cls-4{fill:#8e0839;}.cls-5{fill:#2f2e41;}.cls-6{fill:#ffb6b6;}.cls-7{fill:#020214;}.cls-15,.cls-8{fill:#af1717;}.cls-9{fill:#000002;}.cls-10{fill:#e6e6e6;}.cls-11{opacity:0.2;}.cls-11,.cls-12,.cls-13,.cls-14,.cls-15,.cls-16{isolation:isolate;}.cls-12,.cls-13,.cls-14{font-size:6.93px;}.cls-12,.cls-13,.cls-14,.cls-15,.cls-16{font-family:ShowcardGothic-Reg, Showcard Gothic;}.cls-13{fill:#0a0909;}.cls-14{fill:#0c0b0c;}.cls-15{font-size:5.77px;}.cls-16{font-size:4.11px;fill:#111010;}</style></defs><title>logorv</title><rect class="cls-1" width="250.16" height="200"/><ellipse class="cls-2" cx="145.79" cy="32.69" rx="8.48" ry="8.81"/><path class="cls-2" d="M211.43,172.25a42.39,42.39,0,0,0,14.87-42.73l-.29-1.19c-2.51-9.5-8.67-18.51-17.7-21.54-7.56-2.54-15.82-.59-23.74-1.62-15.51-2-27.52-15-36-28.64s-15-28.9-26.18-40.15C103.9,17.81,73.68,13.82,50.74,25.89s-37.59,38.9-37,65.62,15.89,52.26,38.1,65.82c8.17,5,17.57,8.51,26.94,7.26,8.13-1.06,15.54-5.61,23.64-7,12.74-2.11,25.39,3.86,36.41,10.82S160.52,183.7,173,186.94C185.21,190.1,200.27,181.06,211.43,172.25Z" transform="translate(0.16)"/><path class="cls-3" d="M193.31,26.45c-.29-.2-.57-.36-.83-.56A117.18,117.18,0,0,0,167,13.06l-2.07,29.76H151.72V8.7c-.83-.16-1.65-.36-2.51-.49V42.82H133.55c-18,0-32.51-15.11-32.51-33.75h0l-2.51.59V42.79H85.79l-2-28.37a118.79,118.79,0,0,0-26,14.35l-.41.3c-.7.53-1.4,1-2.1,1.55V144.18H92.88l-.67-9.57L88.55,82.15h73.59l-3.65,52.46-.67,9.57H195V27.61ZM98.56,73.57H88L86,45.43H98.56Zm50.65,0H131.39V73a2,2,0,0,0-2-2H121.7a2,2,0,0,0-2,2h0v.56H101.07V45.43h48.14Zm2.51,0V45.43h13l-2,28.14Z" transform="translate(0.16)"/><path class="cls-3" d="M0,151.5a96.12,96.12,0,0,0,8.93,9.57l232.14.33a96.12,96.12,0,0,0,8.93-9.57Z" transform="translate(0.16)"/><path class="cls-3" d="M157.41,120.92v28.28a1.31,1.31,0,0,0,1.3,1.35h40.35a1.31,1.31,0,0,0,1.3-1.35V120.92a1.31,1.31,0,0,0-1.3-1.35H158.71A1.33,1.33,0,0,0,157.41,120.92Z" transform="translate(0.16)"/><path class="cls-4" d="M158.36,121.28v27.58a.72.72,0,0,0,.7.73h39.69a.72.72,0,0,0,.7-.73V121.28a.72.72,0,0,0-.7-.73H159.06A.7.7,0,0,0,158.36,121.28Z" transform="translate(0.16)"/><path class="cls-5" d="M156.58,154.7a.77.77,0,0,0,.6.3H200.4a.8.8,0,0,0,.79-.82.31.31,0,0,0,0-.16l-.67-3.3a.86.86,0,0,0-.51-.59.9.9,0,0,0-.29-.07H157.85a.9.9,0,0,0-.29.07.86.86,0,0,0-.51.59l-.67,3.3A.89.89,0,0,0,156.58,154.7Z" transform="translate(0.16)"/><path class="cls-3" d="M199.26,151.47h-1a.15.15,0,0,1-.16-.16v-.49a.15.15,0,0,1,.16-.16h1a.15.15,0,0,1,.16.16v.49A.15.15,0,0,1,199.26,151.47Z" transform="translate(0.16)"/><path class="cls-3" d="M196.62,151.47h-1a.15.15,0,0,1-.16-.16v-.49a.15.15,0,0,1,.16-.16h1a.15.15,0,0,1,.16.16v.49A.17.17,0,0,1,196.62,151.47Z" transform="translate(0.16)"/><path class="cls-3" d="M194,151.47h-1a.15.15,0,0,1-.16-.16v-.49a.15.15,0,0,1,.16-.16h1a.15.15,0,0,1,.16.16v.49A.15.15,0,0,1,194,151.47Z" transform="translate(0.16)"/><path class="cls-3" d="M191.28,151.47h-1a.15.15,0,0,1-.16-.16v-.49a.15.15,0,0,1,.16-.16h1a.15.15,0,0,1,.16.16v.49A.15.15,0,0,1,191.28,151.47Z" transform="translate(0.16)"/><path class="cls-3" d="M188.61,151.47h-1a.15.15,0,0,1-.16-.16v-.49a.15.15,0,0,1,.16-.16h1a.15.15,0,0,1,.16.16v.49A.15.15,0,0,1,188.61,151.47Z" transform="translate(0.16)"/><path class="cls-3" d="M186,151.47h-1a.15.15,0,0,1-.16-.16v-.49a.15.15,0,0,1,.16-.16h1a.15.15,0,0,1,.16.16v.49A.15.15,0,0,1,186,151.47Z" transform="translate(0.16)"/><path class="cls-3" d="M183.31,151.47h-1a.15.15,0,0,1-.16-.16v-.49a.15.15,0,0,1,.16-.16h1a.15.15,0,0,1,.16.16v.49A.15.15,0,0,1,183.31,151.47Z" transform="translate(0.16)"/><path class="cls-3" d="M180.64,151.47h-1a.15.15,0,0,1-.16-.16v-.49a.15.15,0,0,1,.16-.16h1a.15.15,0,0,1,.16.16v.49A.15.15,0,0,1,180.64,151.47Z" transform="translate(0.16)"/><path class="cls-3" d="M178,151.47h-1a.15.15,0,0,1-.16-.16v-.49a.15.15,0,0,1,.16-.16h1a.15.15,0,0,1,.16.16v.49A.15.15,0,0,1,178,151.47Z" transform="translate(0.16)"/><path class="cls-3" d="M175.33,151.47h-1a.15.15,0,0,1-.16-.16v-.49a.15.15,0,0,1,.16-.16h1a.15.15,0,0,1,.16.16v.49C175.46,151.4,175.39,151.47,175.33,151.47Z" transform="translate(0.16)"/><path class="cls-3" d="M172.66,151.47h-1a.15.15,0,0,1-.16-.16v-.49a.15.15,0,0,1,.16-.16h1a.15.15,0,0,1,.16.16v.49A.17.17,0,0,1,172.66,151.47Z" transform="translate(0.16)"/><path class="cls-3" d="M170,151.47h-1a.15.15,0,0,1-.16-.16v-.49a.15.15,0,0,1,.16-.16h1a.15.15,0,0,1,.16.16v.49A.15.15,0,0,1,170,151.47Z" transform="translate(0.16)"/><path class="cls-3" d="M167.32,151.47h-1a.15.15,0,0,1-.16-.16v-.49a.15.15,0,0,1,.16-.16h1a.15.15,0,0,1,.16.16v.49A.15.15,0,0,1,167.32,151.47Z" transform="translate(0.16)"/><path class="cls-3" d="M164.65,151.47h-1a.15.15,0,0,1-.16-.16v-.49a.15.15,0,0,1,.16-.16h1a.15.15,0,0,1,.16.16v.49A.15.15,0,0,1,164.65,151.47Z" transform="translate(0.16)"/><path class="cls-3" d="M162,151.47h-1a.15.15,0,0,1-.16-.16v-.49a.15.15,0,0,1,.16-.16h1a.15.15,0,0,1,.16.16v.49A.17.17,0,0,1,162,151.47Z" transform="translate(0.16)"/><path class="cls-3" d="M159.35,151.47h-1a.15.15,0,0,1-.16-.16v-.49a.15.15,0,0,1,.16-.16h1a.15.15,0,0,1,.16.16v.49A.15.15,0,0,1,159.35,151.47Z" transform="translate(0.16)"/><path class="cls-3" d="M199.29,152.85h-1a.15.15,0,0,1-.16-.16v-.49a.15.15,0,0,1,.16-.16h1a.15.15,0,0,1,.16.16v.49A.15.15,0,0,1,199.29,152.85Z" transform="translate(0.16)"/><path class="cls-3" d="M196.65,152.85h-1a.15.15,0,0,1-.16-.16v-.49a.15.15,0,0,1,.16-.16h1a.15.15,0,0,1,.16.16v.49A.17.17,0,0,1,196.65,152.85Z" transform="translate(0.16)"/><path class="cls-3" d="M194,152.85h-1a.15.15,0,0,1-.16-.16v-.49A.15.15,0,0,1,193,152h1a.15.15,0,0,1,.16.16v.49A.15.15,0,0,1,194,152.85Z" transform="translate(0.16)"/><path class="cls-3" d="M191.31,152.85h-1a.15.15,0,0,1-.16-.16v-.49a.15.15,0,0,1,.16-.16h1a.15.15,0,0,1,.16.16v.49A.15.15,0,0,1,191.31,152.85Z" transform="translate(0.16)"/><path class="cls-3" d="M188.64,152.85h-1a.15.15,0,0,1-.16-.16v-.49a.15.15,0,0,1,.16-.16h1a.15.15,0,0,1,.16.16v.49A.15.15,0,0,1,188.64,152.85Z" transform="translate(0.16)"/><path class="cls-3" d="M186,152.85h-1a.15.15,0,0,1-.16-.16v-.49A.15.15,0,0,1,185,152h1a.15.15,0,0,1,.16.16v.49C186.13,152.79,186.07,152.85,186,152.85Z" transform="translate(0.16)"/><path class="cls-3" d="M183.34,152.85h-1a.15.15,0,0,1-.16-.16v-.49a.15.15,0,0,1,.16-.16h1a.15.15,0,0,1,.16.16v.49A.15.15,0,0,1,183.34,152.85Z" transform="translate(0.16)"/><path class="cls-3" d="M180.67,152.85h-1a.15.15,0,0,1-.16-.16v-.49a.15.15,0,0,1,.16-.16h1a.15.15,0,0,1,.16.16v.49A.15.15,0,0,1,180.67,152.85Z" transform="translate(0.16)"/><path class="cls-3" d="M178,152.85h-1a.15.15,0,0,1-.16-.16v-.49A.15.15,0,0,1,177,152h1a.15.15,0,0,1,.16.16v.49A.15.15,0,0,1,178,152.85Z" transform="translate(0.16)"/><path class="cls-3" d="M175.36,152.85h-1a.15.15,0,0,1-.16-.16v-.49a.15.15,0,0,1,.16-.16h1a.15.15,0,0,1,.16.16v.49C175.49,152.79,175.43,152.85,175.36,152.85Z" transform="translate(0.16)"/><path class="cls-3" d="M172.69,152.85h-1a.15.15,0,0,1-.16-.16v-.49a.15.15,0,0,1,.16-.16h1a.15.15,0,0,1,.16.16v.49A.17.17,0,0,1,172.69,152.85Z" transform="translate(0.16)"/><path class="cls-3" d="M170,152.85h-1a.15.15,0,0,1-.16-.16v-.49A.15.15,0,0,1,169,152h1a.15.15,0,0,1,.16.16v.49A.15.15,0,0,1,170,152.85Z" transform="translate(0.16)"/><path class="cls-3" d="M167.36,152.85h-1a.15.15,0,0,1-.16-.16v-.49a.15.15,0,0,1,.16-.16h1a.15.15,0,0,1,.16.16v.49A.15.15,0,0,1,167.36,152.85Z" transform="translate(0.16)"/><path class="cls-3" d="M164.69,152.85h-1a.15.15,0,0,1-.16-.16v-.49a.15.15,0,0,1,.16-.16h1a.15.15,0,0,1,.16.16v.49A.15.15,0,0,1,164.69,152.85Z" transform="translate(0.16)"/><path class="cls-3" d="M162,152.85h-1a.15.15,0,0,1-.16-.16v-.49A.15.15,0,0,1,161,152h1a.15.15,0,0,1,.16.16v.49A.17.17,0,0,1,162,152.85Z" transform="translate(0.16)"/><path class="cls-3" d="M159.38,152.85h-1a.15.15,0,0,1-.16-.16v-.49a.15.15,0,0,1,.16-.16h1a.15.15,0,0,1,.16.16v.49A.15.15,0,0,1,159.38,152.85Z" transform="translate(0.16)"/><path class="cls-3" d="M186.52,154.5H176.19a.15.15,0,0,1-.16-.16v-.49a.15.15,0,0,1,.16-.16h10.33a.15.15,0,0,1,.16.16v.49A.15.15,0,0,1,186.52,154.5Z" transform="translate(0.16)"/><path class="cls-1" d="M164.34,126.56h.89a.51.51,0,0,1,.51.53h0a.51.51,0,0,1-.51.53h-.89a.51.51,0,0,1-.51-.53h0A.51.51,0,0,1,164.34,126.56Z" transform="translate(0.16)"/><path class="cls-1" d="M174.66,126.56h.89a.51.51,0,0,1,.51.53h0a.51.51,0,0,1-.51.53h-.89a.51.51,0,0,1-.51-.53h0A.56.56,0,0,1,174.66,126.56Z" transform="translate(0.16)"/><path class="cls-1" d="M177.59,126.56h.89a.51.51,0,0,1,.51.53h0a.51.51,0,0,1-.51.53h-.89a.51.51,0,0,1-.51-.53h0A.56.56,0,0,1,177.59,126.56Z" transform="translate(0.16)"/><path class="cls-1" d="M167.13,126.49h5.62a.51.51,0,0,1,.51.53h0a.51.51,0,0,1-.51.53h-5.62a.51.51,0,0,1-.51-.53h0A.56.56,0,0,1,167.13,126.49Z" transform="translate(0.16)"/><path class="cls-1" d="M180.92,126.49h5.62a.51.51,0,0,1,.51.53h0a.51.51,0,0,1-.51.53h-5.62a.51.51,0,0,1-.51-.53h0A.51.51,0,0,1,180.92,126.49Z" transform="translate(0.16)"/><path class="cls-1" d="M167.1,128.9H168a.51.51,0,0,1,.51.53h0a.51.51,0,0,1-.51.53h-.89a.51.51,0,0,1-.51-.53h0A.51.51,0,0,1,167.1,128.9Z" transform="translate(0.16)"/><path class="cls-1" d="M177.43,128.9h.89a.51.51,0,0,1,.51.53h0a.51.51,0,0,1-.51.53h-.89a.51.51,0,0,1-.51-.53h0A.51.51,0,0,1,177.43,128.9Z" transform="translate(0.16)"/><path class="cls-1" d="M180.35,128.9h.89a.51.51,0,0,1,.51.53h0a.51.51,0,0,1-.51.53h-.89a.51.51,0,0,1-.51-.53h0A.51.51,0,0,1,180.35,128.9Z" transform="translate(0.16)"/><path class="cls-1" d="M169.9,128.8h5.62a.51.51,0,0,1,.51.53h0a.51.51,0,0,1-.51.53H169.9a.51.51,0,0,1-.51-.53h0A.53.53,0,0,1,169.9,128.8Z" transform="translate(0.16)"/><path class="cls-1" d="M183.69,128.8h5.62a.51.51,0,0,1,.51.53h0a.51.51,0,0,1-.51.53h-5.62a.51.51,0,0,1-.51-.53h0A.51.51,0,0,1,183.69,128.8Z" transform="translate(0.16)"/><path class="cls-1" d="M169.83,131.21h.89a.51.51,0,0,1,.51.53h0a.51.51,0,0,1-.51.53h-.89a.51.51,0,0,1-.51-.53h0A.56.56,0,0,1,169.83,131.21Z" transform="translate(0.16)"/><path class="cls-1" d="M180.19,131.21h.89a.51.51,0,0,1,.51.53h0a.51.51,0,0,1-.51.53h-.89a.51.51,0,0,1-.51-.53h0A.51.51,0,0,1,180.19,131.21Z" transform="translate(0.16)"/><path class="cls-1" d="M183.12,131.21H184a.51.51,0,0,1,.51.53h0a.51.51,0,0,1-.51.53h-.89a.51.51,0,0,1-.51-.53h0A.51.51,0,0,1,183.12,131.21Z" transform="translate(0.16)"/><path class="cls-1" d="M172.66,131.14h5.62a.51.51,0,0,1,.51.53h0a.51.51,0,0,1-.51.53h-5.62a.51.51,0,0,1-.51-.53h0A.51.51,0,0,1,172.66,131.14Z" transform="translate(0.16)"/><path class="cls-1" d="M186.42,131.14H192a.51.51,0,0,1,.51.53h0a.51.51,0,0,1-.51.53h-5.62a.51.51,0,0,1-.51-.53h0A.56.56,0,0,1,186.42,131.14Z" transform="translate(0.16)"/><path class="cls-1" d="M172.6,133.55h.89a.51.51,0,0,1,.51.53h0a.51.51,0,0,1-.51.53h-.89a.51.51,0,0,1-.51-.53h0A.51.51,0,0,1,172.6,133.55Z" transform="translate(0.16)"/><path class="cls-1" d="M185.85,133.55h.89a.51.51,0,0,1,.51.53h0a.51.51,0,0,1-.51.53h-.89a.51.51,0,0,1-.51-.53h0A.56.56,0,0,1,185.85,133.55Z" transform="translate(0.16)"/><path class="cls-1" d="M174.66,142.79h.89a.51.51,0,0,1,.51.53h0a.51.51,0,0,1-.51.53h-.89a.51.51,0,0,1-.51-.53h0A.56.56,0,0,1,174.66,142.79Z" transform="translate(0.16)"/><path class="cls-1" d="M177.59,142.79h.89a.51.51,0,0,1,.51.53h0a.51.51,0,0,1-.51.53h-.89a.51.51,0,0,1-.51-.53h0A.56.56,0,0,1,177.59,142.79Z" transform="translate(0.16)"/><path class="cls-1" d="M180.92,142.89h5.62a.51.51,0,0,1,.51.53h0a.51.51,0,0,1-.51.53h-5.62a.51.51,0,0,1-.51-.53h0A.51.51,0,0,1,180.92,142.89Z" transform="translate(0.16)"/><path class="cls-1" d="M164.34,142.79h.89a.51.51,0,0,1,.51.53h0a.51.51,0,0,1-.51.53h-.89a.51.51,0,0,1-.51-.53h0A.51.51,0,0,1,164.34,142.79Z" transform="translate(0.16)"/><path class="cls-1" d="M167.13,142.89h5.62a.51.51,0,0,1,.51.53h0a.51.51,0,0,1-.51.53h-5.62a.51.51,0,0,1-.51-.53h0A.56.56,0,0,1,167.13,142.89Z" transform="translate(0.16)"/><path class="cls-1" d="M167.1,140.48H168a.51.51,0,0,1,.51.53h0a.51.51,0,0,1-.51.53h-.89a.51.51,0,0,1-.51-.53h0A.49.49,0,0,1,167.1,140.48Z" transform="translate(0.16)"/><path class="cls-1" d="M177.43,140.48h.89a.51.51,0,0,1,.51.53h0a.51.51,0,0,1-.51.53h-.89a.51.51,0,0,1-.51-.53h0A.49.49,0,0,1,177.43,140.48Z" transform="translate(0.16)"/><path class="cls-1" d="M180.35,140.48h.89a.51.51,0,0,1,.51.53h0a.51.51,0,0,1-.51.53h-.89a.51.51,0,0,1-.51-.53h0A.49.49,0,0,1,180.35,140.48Z" transform="translate(0.16)"/><path class="cls-1" d="M169.9,140.55h5.62a.51.51,0,0,1,.51.53h0a.51.51,0,0,1-.51.53H169.9a.51.51,0,0,1-.51-.53h0A.53.53,0,0,1,169.9,140.55Z" transform="translate(0.16)"/><path class="cls-1" d="M169.83,138.14h.89a.51.51,0,0,1,.51.53h0a.51.51,0,0,1-.51.53h-.89a.51.51,0,0,1-.51-.53h0A.56.56,0,0,1,169.83,138.14Z" transform="translate(0.16)"/><path class="cls-1" d="M180.19,138.14h.89a.51.51,0,0,1,.51.53h0a.51.51,0,0,1-.51.53h-.89a.51.51,0,0,1-.51-.53h0A.51.51,0,0,1,180.19,138.14Z" transform="translate(0.16)"/><path class="cls-1" d="M183.12,138.14H184a.51.51,0,0,1,.51.53h0a.51.51,0,0,1-.51.53h-.89a.51.51,0,0,1-.51-.53h0A.51.51,0,0,1,183.12,138.14Z" transform="translate(0.16)"/><path class="cls-1" d="M172.66,138.24h5.62a.51.51,0,0,1,.51.53h0a.51.51,0,0,1-.51.53h-5.62a.51.51,0,0,1-.51-.53h0A.51.51,0,0,1,172.66,138.24Z" transform="translate(0.16)"/><path class="cls-1" d="M172.6,135.83h.89a.51.51,0,0,1,.51.53h0a.51.51,0,0,1-.51.53h-.89a.51.51,0,0,1-.51-.53h0A.51.51,0,0,1,172.6,135.83Z" transform="translate(0.16)"/><path class="cls-1" d="M185.85,135.83h.89a.51.51,0,0,1,.51.53h0a.51.51,0,0,1-.51.53h-.89a.51.51,0,0,1-.51-.53h0A.56.56,0,0,1,185.85,135.83Z" transform="translate(0.16)"/><path class="cls-6" d="M160.43,170l-4.23-7,13.31-11,5.5-6.33a5.93,5.93,0,0,1,8.61-.46,6.5,6.5,0,0,1,1.72,2.71h0a6.41,6.41,0,0,1-3.69,7.92L173,159.22Z" transform="translate(0.16)"/><path class="cls-5" d="M60.91,119.56v33.82H83.76V119.56a1.14,1.14,0,0,0-.76-1.09,1.09,1.09,0,0,0-.32-.07H62.06a1.13,1.13,0,0,0-1.14,1.15Zm8.9,11.61a2.49,2.49,0,0,1,2.45-2.51,2.46,2.46,0,0,1,2.41,2.51v3.93a2.43,2.43,0,1,1-4.86,0Z" transform="translate(0.16)"/><path class="cls-3" d="M60.85,152.33v3.27a.61.61,0,0,0,.6.63H83.19a.62.62,0,0,0,.6-.63v-3.27Z" transform="translate(0.16)"/><path class="cls-3" d="M25,68.59v61.8a2.9,2.9,0,0,0,2.86,3H116a2.9,2.9,0,0,0,2.86-3V68.59a2.9,2.9,0,0,0-2.86-3H27.87A2.9,2.9,0,0,0,25,68.59Z" transform="translate(0.16)"/><path class="cls-1" d="M27.07,69.35v60.25a1.56,1.56,0,0,0,1.53,1.58h86.71a1.56,1.56,0,0,0,1.53-1.58V69.35a1.56,1.56,0,0,0-1.53-1.58H28.6A1.54,1.54,0,0,0,27.07,69.35Z" transform="translate(0.16)"/><path class="cls-5" d="M43.15,156a.94.94,0,0,0,.73.36H95.45a1,1,0,0,0,1-1,.43.43,0,0,0,0-.2l-.79-4a1,1,0,0,0-.6-.73,1.1,1.1,0,0,0-.35-.07H44.67a1.31,1.31,0,0,0-.35.07,1.14,1.14,0,0,0-.6.73l-.79,4A1.09,1.09,0,0,0,43.15,156Z" transform="translate(0.16)"/><path class="cls-3" d="M112.48,76H31.36a.33.33,0,0,1,0-.66h81.12a.33.33,0,0,1,0,.66Z" transform="translate(0.16)"/><ellipse class="cls-7" cx="37.05" cy="71.66" rx="1.91" ry="2.01"/><ellipse class="cls-8" cx="43.57" cy="71.66" rx="1.91" ry="2.01"/><ellipse class="cls-9" cx="50.11" cy="71.66" rx="1.91" ry="2.01"/><path class="cls-3" d="M108.54,70.17H103.9a.36.36,0,0,0,0,.73h4.64a.36.36,0,0,0,.35-.36A.34.34,0,0,0,108.54,70.17Z" transform="translate(0.16)"/><path class="cls-3" d="M108.54,71.52H103.9a.36.36,0,0,0,0,.73h4.64a.36.36,0,0,0,0-.73Z" transform="translate(0.16)"/><path class="cls-3" d="M108.54,72.91H103.9a.36.36,0,0,0,0,.73h4.64a.36.36,0,0,0,.35-.36A.34.34,0,0,0,108.54,72.91Z" transform="translate(0.16)"/><path class="cls-5" d="M220.39,153.75a2,2,0,0,0,2,1.42l8.42-.23a2.09,2.09,0,0,0,1.91-1.55l1.18-13.2a3.15,3.15,0,1,0,1.18-6.07,2.7,2.7,0,0,0-.54.07,2,2,0,0,0-1.56-.69l-13,.36-.32,0a2.09,2.09,0,0,0-1.62,2.44c0,.1,0,.2.06.26Zm13.73-14.45.86-3.17a2.24,2.24,0,0,0,0-1.12s.06,0,.13,0a2.3,2.3,0,0,1,.13,4.59A2.07,2.07,0,0,1,234.11,139.29Z" transform="translate(0.16)"/><path class="cls-3" d="M219.69,133.85c.29,1.65,3.37,2.8,7.12,2.57,3.43-.16,6.23-1.42,6.74-2.9a1.14,1.14,0,0,0-.57-.07l-13,.36A1,1,0,0,0,219.69,133.85Z" transform="translate(0.16)"/><path class="cls-4" d="M227.47,146.49s0,0,.06,0l1.84-1.25a.17.17,0,0,0,0-.23,0,0,0,0,0,0,0l-1.91-1.29c-.06-.07-.16,0-.22,0a.17.17,0,0,0,0,.23l1.68,1.15-1.62,1.09a.17.17,0,0,0,0,.23.17.17,0,0,0,.16.1Z" transform="translate(0.16)"/><path class="cls-4" d="M224.58,146.62a.18.18,0,0,0,.13-.2s0-.07-.06-.1l-1.68-1,1.62-1.25a.17.17,0,0,0,0-.23c-.06-.07-.16-.1-.22,0l-1.81,1.42a.17.17,0,0,0,0,.23s0,0,.06,0l1.91,1.12Z" transform="translate(0.16)"/><path class="cls-4" d="M227.28,147.58a0,0,0,0,0,0,0,.21.21,0,0,0,.06-.23h0l-2.61-4.42a.19.19,0,0,0-.22-.07.21.21,0,0,0-.06.23l2.61,4.42A.27.27,0,0,0,227.28,147.58Z" transform="translate(0.16)"/><path class="cls-4" d="M67.55,94.26h14a1.08,1.08,0,0,1,1,1.09v1.42a1.08,1.08,0,0,1-1,1.09h-14a1.08,1.08,0,0,1-1-1.09V95.35A1.1,1.1,0,0,1,67.55,94.26Z" transform="translate(0.16)"/><path class="cls-10" d="M59.39,108.58H89.79a1.08,1.08,0,0,1,1,1.09v1.42a1.08,1.08,0,0,1-1,1.09H59.39a1.08,1.08,0,0,1-1-1.09v-1.42A1.08,1.08,0,0,1,59.39,108.58Z" transform="translate(0.16)"/><path class="cls-3" d="M92.37,132.53l.06.23h0l2.07,6.53,2.38,7.56L101.36,161l0,2.21h0l.32,17.72-.92,2.41,1,3.93s-.48-5.94-3.05-2.54c-1.46,1.95-3.15,3.93-4.54,5.81,2,.86,4.1,1.62,6.2,2.31.44.16.92.3,1.37.43l.29.1A81.36,81.36,0,0,0,123.51,197c.38,0,.73,0,1.11,0h1.59c.83,0,1.62,0,2.45,0a81.52,81.52,0,0,0,17.83-2.51c0-2.51-.16-5.41-.32-8.55-.06-1.52-1.72-3.2-1.81-4.78-.06-1.22,1.4-2.34,1.3-3.56-.51-7.52-1.11-4.65-1.56-10,0-.53-.1-1-.13-1.52-.29-3.43-.51-5.58-.51-5.58l1.94-12.77,3.05-20-.22-.4-.25-.13-16.14-8.31-.89-2.34a3.45,3.45,0,0,0-3.21-2.28l-10.64,0a3.51,3.51,0,0,0-2.83,1.48l-2.89,4.16Z" transform="translate(0.16)"/><path class="cls-3" d="M103.84,157.9l-2.41,5.35-1.65,3.66-2.83,15.38-1.43,1.55-1.21-5.54L81.6,181.23a11.81,11.81,0,0,1-.38-2.57l.22-.23c.19-.2.38-.4.38-.56-.16-9.11.29-24.58,3.91-34A22.07,22.07,0,0,1,88,139.56a1.81,1.81,0,0,1,.22-.3c1.68-2.44,2.73-4.82,4.23-6.53h0l0,0h0L102.73,127l.44,12.9.32,9.27Z" transform="translate(0.16)"/><path class="cls-3" d="M141,159.42l3,6.7,1,2.34,2.83,15.38,1.4,1.55,1.21-5.54.57-.13,10.33-2.21,3,9.9a6.1,6.1,0,0,0-1-7.42c-.19-.2-.38-.4-.38-.56.16-10.69-.44-30.26-6.16-38.31-1.81-2.54-2.89-5.08-4.48-6.86h0l-3.84-6.53-.22-.4-.25-.13Z" transform="translate(0.16)"/><ellipse id="a657ec4b-47ce-4d2a-9c58-81a811696ca9" class="cls-6" cx="122.94" cy="96.37" rx="14.17" ry="14.72"/><path class="cls-5" d="M141.9,86.11a1.24,1.24,0,0,0-.86-.4l.22-.63a1.14,1.14,0,0,0-.67-1.48,1.27,1.27,0,0,0-.6-.07l-.76.16.06-.53a1.17,1.17,0,0,0-1-1.32,1,1,0,0,0-.54.07,1.2,1.2,0,0,1-1.62-.92l-.25-1.35,0-.07A10.14,10.14,0,0,0,129,75a29.1,29.1,0,0,0-8.29,0,7.47,7.47,0,0,0-3.3.86,3,3,0,0,0-1.43,2.77c-2.7-.86-5.56.86-7,3-1.68,2.57-2,5.77-2,8.28-.13,5.94,1,10.79,3.5,14.42.19.26.22.82.57,1l-.06-.13c.38.2.79.53.64.89-.41,1,2.41,3.27,4.42,4,3.65,1.35,8.55,1.25,11.95.76l.13-.82c1.24-.16,2.1-.49,2.35-1,.44-.4.79-.73,1.11-1.06h0a0,0,0,0,0,0,0c1.56-1.55,1.91-2.41,2.07-3.76a10.9,10.9,0,0,0-.41-3.83c5.94,1-2.35-6.6,3.21-8.05a.39.39,0,0,1,.19,0,2.57,2.57,0,0,0,.48-.13,7.32,7.32,0,0,0,2.13-1c1.56-1,2.07-2.28,2.86-3.76A1.21,1.21,0,0,0,141.9,86.11Z" transform="translate(0.16)"/><path class="cls-5" d="M172.85,160.44c0,.59,0,1.39,0,2.38v.43c0,1.85-.1,3.37-.16,5.08v.36c-.1,2.38-.22,5.18-.48,9.57-.44,8.15-1.24,1.12-2,4,0,.13-.1.3-.13.49a9.17,9.17,0,0,1-.6,2.08c-.41.26-.86.49-1.27.76-1.21.69-2.41,1.35-3.65,2-.7.36-1.4.69-2.1,1.06-.1.07-.22.1-.32.16a89.05,89.05,0,0,1-11.06,4.39c-.73.23-1.46.46-2.22.66s-1.56.43-2.32.63A81.52,81.52,0,0,1,128.69,197c-.79,0-1.62,0-2.45,0h-1.59c-.35,0-.73,0-1.11,0a82.49,82.49,0,0,1-21.38-3.56l-.29-.1-1.37-.43c-2.1-.69-4.16-1.45-6.2-2.31-1.56-.66-3.08-1.35-4.61-2.08a0,0,0,0,1,0,0c-.32-.16-.64-.3-1-.46,0,0-.1,0-.13-.07Q86.82,187,85.06,186c-1-2.34-2.35-2.77-3.21-4.82a9.75,9.75,0,0,1-.54-1.88v0c.1,1.22-.38-2.18,0,0v-.13c0-.13,0-.26,0-.43-1.08-11.05-1-23.69-1.49-34.12,0-.66-.06-1.32-.1-1.95,0-.2,0-.4,0-.59s0-.13.06-.16,0,0,0-.07,0,0,0-.07a0,0,0,0,1,0,0v0s.06-.1.1-.13,0,0,0-.07a0,0,0,0,1,0,0l0,0,0,0a0,0,0,0,1,0,0l.1-.1.35-.3.13-.1a5.83,5.83,0,0,1,1-.49c.13,0,.25-.1.38-.13l.13,0a2,2,0,0,1,.22-.07c.35-.1.76-.2,1.18-.3.06,0,.1,0,.16,0l.22,0c.1,0,.22,0,.32-.07a27.81,27.81,0,0,1,3.21-.33.94.94,0,0,0,.32,0,1.49,1.49,0,0,0,.38,0h.7c.32,0,.64,0,1,0,1,0,2,0,3,0,.48,0,1,0,1.53.07h.1c.44,0,.89,0,1.37.07.32,0,.64,0,1,.07s.6,0,.92.07a5.47,5.47,0,0,1,.73.07c.22,0,.41,0,.64,0l.29,0c.16,0,.32,0,.48,0l1,.1,1.08.1,1.08.1h.1l1,.1a.52.52,0,0,1,.22,0l1,.1c.1,0,.19,0,.29,0l.76.1c.32,0,.67.07,1,.13l.76.1c.41.07.83.1,1.21.16.16,0,.32,0,.48.07l3.56.49c1.81.26,3.65.56,5.53.86l5.62,1c.48.1,1,.16,1.43.26.22,0,.44.1.64.13.38.07.73.13,1.11.23s.73.13,1.11.23.89.16,1.33.26q4.34.89,8.58,1.88c.48.1.92.23,1.37.33l2.73.66.73.2,1.81.49.1,0c.44.1.89.23,1.3.33,1,.26,2,.56,3,.82.67.2,1.3.36,1.94.56l2.8.86a5.34,5.34,0,0,1,.67.23c.67.23,1.33.43,2,.66s1,.33,1.49.53,1,.36,1.43.53c.32.1.6.23.89.33l1.27.49c.13.07.25.1.38.16l.22.1.44.2.44.2c.16.07.29.13.41.2s.29.13.41.2l.35.16.67.3c.1.07.22.1.32.16l.25.13s.06,0,.1.07.16.1.25.13.38.2.54.26.48.26.7.36a6.64,6.64,0,0,0,.67.36s.06,0,.1.07l.16.1.48.3a10,10,0,0,1,.86.59c.06,0,.13.1.19.13a6.46,6.46,0,0,0,.57.43h0a.7.7,0,0,1,.16.13c.06,0,.1.1.16.13s.32.3.44.43l.13.13s0,0,.06.07a.87.87,0,0,1,.16.2,0,0,0,0,0,0,0,1.87,1.87,0,0,0,.22.26s.06.1.1.13.06.1.1.16.06.1.1.13a1.8,1.8,0,0,1,.16.36c0,.1.06.16.1.26C172.82,160.28,172.85,160.38,172.85,160.44Z" transform="translate(0.16)"/><path class="cls-11" d="M172.85,160.44c0,.59,0,1.39,0,2.38v.43c0,1.42-.1,3.13-.16,5.08v.36c-.1,2.38-.22,5.18-.48,9.57-.44,8.15-1.24,1.12-2,4-2.19-1.39-4.58-2.84-7.12-4.36-.44-.26-.92-.53-1.4-.82-5.12-3-10.8-6.07-16.78-9.14-.22-.13-.48-.23-.7-.36a421.57,421.57,0,0,0-40.61-18.38c-2.32-.89-4.54-1.68-6.64-2.38a75,75,0,0,0-11.15-2.94c-3.05-.46-5.15-.3-6,.66,0-.66-.06-1.32-.1-1.95,0-.2,0-.4,0-.59s0-.1.06-.16v0s0,0,0-.07,0,0,0-.07,0,0,0-.07.06-.1.1-.13l.1-.1,0,0,0,0a0,0,0,0,1,0,0l.1-.1.35-.3.13-.1a5.83,5.83,0,0,1,1-.49c.13,0,.25-.1.38-.13l.13,0a2,2,0,0,1,.22-.07c.35-.1.76-.2,1.18-.3a1.54,1.54,0,0,1,.38-.07c.1,0,.22,0,.32-.07a27.81,27.81,0,0,1,3.21-.33.94.94,0,0,0,.32,0,1.49,1.49,0,0,0,.38,0h.7c.32,0,.64,0,1,0h3c.48,0,1,0,1.53.07h.1c.44,0,.89,0,1.37.07.32,0,.64,0,1,.07s.6,0,.92.07a5.47,5.47,0,0,1,.73.07c.22,0,.41,0,.64,0s.51,0,.76.07l1,.1,1.08.1,1.08.1h.1l1,.1q2.76.3,5.72.69l3.56.49c1.81.26,3.65.56,5.53.86l5.62,1c.48.1,1,.16,1.43.26l1.75.33c.38.07.73.13,1.11.23s.89.16,1.33.26q4.34.89,8.58,1.88c.48.1.92.23,1.37.33L143,147l.73.2c.6.16,1.21.33,1.81.46h0a.11.11,0,0,1,.1,0c.44.1.89.23,1.3.36,1,.26,2,.56,3,.82.67.2,1.3.4,1.94.56l2.8.86a5.34,5.34,0,0,1,.67.23c.67.23,1.33.43,2,.66s1,.33,1.49.53,1,.36,1.43.53c.32.1.6.23.89.33l1.27.49c.13.07.25.1.38.16l.67.3.44.2c.16.07.29.13.41.2s.29.13.41.2l.35.16.67.3c.1.07.22.1.32.16l.25.13s.06,0,.1.07l.79.4c.25.13.48.26.7.36s.51.3.76.43l.16.1.48.3a10,10,0,0,1,.86.59l.73.56h0a2.24,2.24,0,0,0,.32.26c.16.16.32.3.44.43l.13.13s0,0,.06.07.13.16.19.23a1.87,1.87,0,0,0,.22.26s.06.1.1.13.06.1.1.16.06.1.1.13a1.8,1.8,0,0,1,.16.36c0,.1.06.16.1.26A1.11,1.11,0,0,1,172.85,160.44Z" transform="translate(0.16)"/><text class="cls-12" transform="translate(64.67 92.32) scale(0.96 1)">&lt;</text><text class="cls-13" transform="translate(67.37 92.32) scale(0.96 1)">C</text><text class="cls-12" transform="translate(71.34 92.32) scale(0.96 1)">S</text><text class="cls-14" transform="translate(74.68 92.32) scale(0.96 1)">E </text><text class="cls-12" transform="translate(79.73 92.32) scale(0.96 1)">/&gt;</text><text class="cls-15" transform="translate(41.35 105.76) scale(0.75 1)">CREative software engineer</text><text class="cls-16" transform="translate(174.65 136.85) scale(0.83 1)">&lt;CSE /&gt;</text></svg>